<svg xmlns="http://www.w3.org/2000/svg" width="24" height="24" viewBox="0 0 24 24">
  <defs>
    <style>
      .cls-1 {
        fill: #939393;
        fill-rule: evenodd;
      }
    </style>
  </defs>
  <path id="ic_social_tumblr" class="cls-1" d="M8.979,16.694a5.558,5.558,0,0,0,.251,1.89,3.4,3.4,0,0,0,.916,1.218,4.614,4.614,0,0,0,1.6.882A6.836,6.836,0,0,0,13.917,21a8.326,8.326,0,0,0,2-.231A9.443,9.443,0,0,0,18,20.013V17.177a4.874,4.874,0,0,1-2.709.882,2.552,2.552,0,0,1-1.354-.357,1.33,1.33,0,0,1-.6-0.715A5.35,5.35,0,0,1,13,15V11h4V8H13V3H10.625A7.841,7.841,0,0,1,10,5.31,5.108,5.108,0,0,1,8.791,6.843,4.775,4.775,0,0,1,7,7.83V11H9Z"/>
</svg>
