<svg xmlns="http://www.w3.org/2000/svg" width="24" height="24" viewBox="0 0 24 24">
  <defs>
    <style>
      .cls-1 {
        fill: #939393;
        fill-rule: evenodd;
      }
    </style>
  </defs>
  <path id="ic_social_twitter" class="cls-1" d="M19.644,5.688a4.263,4.263,0,0,0,1.8-2.373,8,8,0,0,1-2.606,1.041A4.009,4.009,0,0,0,15.846,3a4.2,4.2,0,0,0-4.1,4.291,4.456,4.456,0,0,0,.1.977A11.487,11.487,0,0,1,3.392,3.785a4.432,4.432,0,0,0-.555,2.158A4.349,4.349,0,0,0,4.662,9.516,3.981,3.981,0,0,1,2.8,8.979V9.032A4.247,4.247,0,0,0,6.1,13.24a3.849,3.849,0,0,1-1.082.151,3.893,3.893,0,0,1-.771-0.076,4.132,4.132,0,0,0,3.833,2.98,8.006,8.006,0,0,1-5.1,1.837A7.817,7.817,0,0,1,2,18.072,11.254,11.254,0,0,0,8.29,20c7.548,0,11.673-6.539,11.673-12.21,0-.187,0-0.372-0.011-0.555A8.531,8.531,0,0,0,22,5.012,7.916,7.916,0,0,1,19.644,5.688Z"/>
</svg>
