<svg xmlns="http://www.w3.org/2000/svg" width="24" height="24" viewBox="0 0 24 24">
  <defs>
    <style>
      .cls-1 {
        fill: #0066ff;
        fill-rule: evenodd;
      }
    </style>
  </defs>
  <path id="ic_social_vk" class="cls-1" d="M13.444,18.816a1.227,1.227,0,0,0,.663-0.29,1.065,1.065,0,0,0,.2-0.639s-0.028-1.95.876-2.237,2.037,1.885,3.25,2.719a2.3,2.3,0,0,0,1.615.493l3.245-.045s1.7-.1.893-1.44a10.855,10.855,0,0,0-2.413-2.794c-2.035-1.89-1.762-1.584.689-4.854,1.492-1.991,2.089-3.206,1.9-3.727-0.178-.5-1.275-0.365-1.275-0.365l-3.653.023a0.829,0.829,0,0,0-.472.083,1.019,1.019,0,0,0-.322.392,21.23,21.23,0,0,1-1.349,2.851c-1.627,2.765-2.277,2.911-2.543,2.739-0.619-.4-0.464-1.607-0.464-2.465,0-2.679.406-3.8-.791-4.086A6.243,6.243,0,0,0,11.788,5a7.873,7.873,0,0,0-3.031.31C8.341,5.518,8.02,5.972,8.216,6a1.639,1.639,0,0,1,1.078.542,3.531,3.531,0,0,1,.361,1.655s0.215,3.154-.5,3.546c-0.492.269-1.168-.28-2.618-2.788a23.348,23.348,0,0,1-1.3-2.705,1.086,1.086,0,0,0-.3-0.407,1.51,1.51,0,0,0-.561-0.227L0.9,5.636a1.183,1.183,0,0,0-.712.241A0.758,0.758,0,0,0,.17,6.5s2.718,6.364,5.8,9.571a8.333,8.333,0,0,0,6.026,2.748h1.452Z"/>
</svg>
