<svg xmlns="http://www.w3.org/2000/svg" width="24" height="24" viewBox="0 0 24 24">
  <defs>
    <style>
      .cls-1 {
        fill: #0066ff;
        fill-rule: evenodd;
      }
    </style>
  </defs>
  <path id="ic_social_instagram" class="cls-1" d="M12,15a2.825,2.825,0,0,0,3-3,2.825,2.825,0,0,0-3-3,2.825,2.825,0,0,0-3,3A2.825,2.825,0,0,0,12,15Zm0,2.086A5.013,5.013,0,0,0,17,12a4.94,4.94,0,0,0-5-5,4.94,4.94,0,0,0-5,5A5.013,5.013,0,0,0,12,17.086ZM2,8A6.166,6.166,0,0,1,8,2h8a6.166,6.166,0,0,1,6,6v8a6.166,6.166,0,0,1-6,6H8a6.166,6.166,0,0,1-6-6V8ZM17,5a1,1,0,1,1-1,1A1,1,0,0,1,17,5Z"/>
</svg>
