<svg xmlns="http://www.w3.org/2000/svg" width="24" height="24" viewBox="0 0 24 24">
  <defs>
    <style>
      .cls-1 {
        fill: #0066ff;
        fill-rule: evenodd;
      }
    </style>
  </defs>
  <path id="ic_social_pinterest" class="cls-1" d="M7.428,21.833a0.16,0.16,0,0,0,.283.067,12.125,12.125,0,0,0,2.146-3.752C10,17.636,10.692,15,10.692,15a3.443,3.443,0,0,0,2.9,1.428c3.82,0,6.412-3.36,6.412-7.858,0-3.4-2.987-6.568-7.524-6.568C6.838,2,3.991,5.9,3.991,9.16c0,1.972.774,3.726,2.433,4.381a0.412,0.412,0,0,0,.6-0.287c0.055-.2.185-0.708,0.244-0.921a0.545,0.545,0,0,0-.171-0.638,3.229,3.229,0,0,1-.786-2.248,5.536,5.536,0,0,1,5.852-5.492c3.191,0,4.945,1.882,4.945,4.394,0,3.306-1.517,6.1-3.766,6.1a1.8,1.8,0,0,1-1.878-2.208,23.813,23.813,0,0,0,1.05-4.069,1.557,1.557,0,0,0-1.6-1.721c-1.271,0-2.293,1.268-2.293,2.967a4.282,4.282,0,0,0,.38,1.815s-1.3,5.315-1.529,6.247A12.438,12.438,0,0,0,7.428,21.833Z"/>
</svg>
