<?xml version="1.0" standalone="no"?>
<!DOCTYPE svg PUBLIC "-//W3C//DTD SVG 1.1//EN" "http://www.w3.org/Graphics/SVG/1.1/DTD/svg11.dtd">
<svg width="100%" height="100%" viewBox="0 0 20 20" version="1.1" xmlns="http://www.w3.org/2000/svg" xmlns:xlink="http://www.w3.org/1999/xlink" xml:space="preserve" style="fill-rule:evenodd;clip-rule:evenodd;stroke-linejoin:round;stroke-miterlimit:1.41421;">
    <path d="M10,0C15.519,0 20,4.481 20,10C20,15.519 15.519,20 10,20C4.481,20 0,15.519 0,10C0,4.481 4.481,0 10,0ZM6.5,12.502L6.5,15.698C7.562,15.886 8.683,15.99 9.841,15.999C9.901,16.002 9.961,16.003 10.021,16.003C10.085,16.003 10.149,16.002 10.211,15.999C11.35,15.987 12.453,15.883 13.498,15.698L13.498,12.618C13.499,12.579 13.5,12.541 13.5,12.502C13.5,11.541 13.152,10.717 12.456,10.031C11.761,9.344 10.935,9.001 9.98,9.001C9.025,9.001 8.207,9.344 7.525,10.031C6.843,10.717 6.502,11.541 6.502,12.502L6.5,12.502ZM12,6C12,5.451 11.801,4.98 11.404,4.587C11.006,4.195 10.534,3.999 9.988,3.999C9.442,3.999 8.975,4.195 8.585,4.587C8.195,4.98 8,5.451 8,6C8,6.549 8.199,7.02 8.596,7.413C8.994,7.805 9.466,8.001 10.012,8.001C10.558,8.001 11.025,7.805 11.415,7.413C11.805,7.02 12,6.549 12,6Z" style="fill:rgb(27,112,255);"/>
</svg>
