<?xml version="1.0" encoding="UTF-8" standalone="no"?>
<!DOCTYPE svg PUBLIC "-//W3C//DTD SVG 1.1//EN" "http://www.w3.org/Graphics/SVG/1.1/DTD/svg11.dtd">
<svg width="100%" height="100%" viewBox="0 0 22 16" version="1.1" xmlns="http://www.w3.org/2000/svg" xmlns:xlink="http://www.w3.org/1999/xlink" xml:space="preserve" style="fill-rule:evenodd;clip-rule:evenodd;stroke-linejoin:round;stroke-miterlimit:1.41421;">
    <g id="ic_cloud_upload" transform="matrix(0.916018,1.94934e-18,1.94934e-18,0.908059,0,0)">
        <path d="M1.638,15.981C2.738,17.081 4.062,17.62 5.611,17.62L19.213,17.62C20.538,17.62 21.682,17.149 22.603,16.206C23.545,15.263 24.017,14.141 24.017,12.817C24.017,11.694 23.658,10.707 22.962,9.831C22.266,8.956 21.391,8.395 20.291,8.125C20.627,7.609 20.807,7.026 20.807,6.397C20.807,5.522 20.493,4.759 19.864,4.13C19.236,3.502 18.495,3.187 17.597,3.187C16.812,3.187 16.116,3.457 15.532,3.973C15.038,2.761 14.253,1.818 13.175,1.078C12.098,0.359 10.908,0 9.607,0C7.833,0 6.307,0.629 5.073,1.886C3.816,3.12 3.187,4.624 3.187,6.397C3.187,6.509 3.187,6.689 3.21,6.936C2.222,7.407 1.459,8.081 0.875,9.001C0.292,9.921 0,10.931 0,12.009C0,13.557 0.538,14.882 1.638,15.981ZM6.532,8.911L10.908,4.512C10.998,4.444 11.088,4.399 11.2,4.399C11.312,4.399 11.402,4.444 11.492,4.512L15.891,8.911C15.959,9.001 16.004,9.091 16.004,9.203C16.004,9.315 15.959,9.405 15.891,9.495C15.802,9.562 15.712,9.607 15.6,9.607L12.794,9.607L12.794,14.006C12.794,14.118 12.771,14.208 12.682,14.298C12.614,14.365 12.502,14.41 12.412,14.41L10.011,14.41C9.898,14.41 9.786,14.365 9.719,14.298C9.629,14.208 9.607,14.118 9.607,14.006L9.607,9.607L6.801,9.607C6.689,9.607 6.576,9.562 6.509,9.495C6.442,9.427 6.397,9.315 6.397,9.203C6.397,9.113 6.442,9.001 6.532,8.911Z" style="fill:rgb(27,112,255);"/>
    </g>
</svg>
